<svg xmlns="http://www.w3.org/2000/svg" viewBox="-1.3 0 24.76 26.06">
  <title>dignitas favicon</title>
  <style>
    path {
      fill: #343a40;
    }
    @media (prefers-color-scheme: dark) {
      path {
        fill: #f3e6d7;
      }
    }
  </style>
  <path d="M0,25.78V.22H9.54a14.11,14.11,0,0,1,5.54,1A11.15,11.15,0,0,1,21.47,8,14.92,14.92,0,0,1,22.28,13a14.7,14.7,0,0,1-.9,5.27,11.34,11.34,0,0,1-2.57,4,11.55,11.55,0,0,1-4,2.59,14.32,14.32,0,0,1-5.24.92ZM16.27,13a10,10,0,0,0-.45-3.08,6.92,6.92,0,0,0-1.31-2.39,5.73,5.73,0,0,0-2.12-1.55A7.17,7.17,0,0,0,9.54,5.4H5.9V20.59H9.54A6.86,6.86,0,0,0,12.42,20a5.82,5.82,0,0,0,2.11-1.6A7.28,7.28,0,0,0,15.82,16,9.81,9.81,0,0,0,16.27,13Z"/>
</svg>
