<svg xmlns="http://www.w3.org/2000/svg" viewBox="0 0 163.29 26.06"><defs><style>.cls-1{fill:#f3e6d7;}</style></defs><title>dignitas-white-logo-svg</title><g id="Layer_2" data-name="Layer 2"><g id="weighted_logos" data-name="weighted logos"><path class="cls-1" d="M0,25.78V.22H9.54a14.11,14.11,0,0,1,5.54,1A11.15,11.15,0,0,1,21.47,8,14.92,14.92,0,0,1,22.28,13a14.7,14.7,0,0,1-.9,5.27,11.34,11.34,0,0,1-2.57,4,11.55,11.55,0,0,1-4,2.59,14.32,14.32,0,0,1-5.24.92ZM16.27,13a10,10,0,0,0-.45-3.08,6.92,6.92,0,0,0-1.31-2.39,5.73,5.73,0,0,0-2.12-1.55A7.17,7.17,0,0,0,9.54,5.4H5.9V20.59H9.54A6.86,6.86,0,0,0,12.42,20a5.82,5.82,0,0,0,2.11-1.6A7.28,7.28,0,0,0,15.82,16,9.81,9.81,0,0,0,16.27,13Z"/><path class="cls-1" d="M25.78,25.78V.22h5.9V25.78Z"/><path class="cls-1" d="M54.14,23.26A9.61,9.61,0,0,1,47.41,26a12,12,0,0,1-8.66-3.64,12.64,12.64,0,0,1-2.65-4.16,14.27,14.27,0,0,1-1-5.35,12.82,12.82,0,0,1,1-5,12.55,12.55,0,0,1,2.68-4.07A12.72,12.72,0,0,1,47.88,0a12.53,12.53,0,0,1,6.23,1.49,9.71,9.71,0,0,1,4,4.09L53.71,8.93a6.28,6.28,0,0,0-2.5-2.68,6.92,6.92,0,0,0-3.55-1A6,6,0,0,0,45,5.89a6.16,6.16,0,0,0-2.07,1.66A7.74,7.74,0,0,0,41.58,10a9.49,9.49,0,0,0-.47,3,9,9,0,0,0,.5,3.06A7.47,7.47,0,0,0,43,18.52a6.39,6.39,0,0,0,2.14,1.6,6.46,6.46,0,0,0,2.75.58,8.12,8.12,0,0,0,6.23-3.2V16.7h-5V12.42H59V25.78h-4.9Z"/><path class="cls-1" d="M68.83,11.16V25.78h-5.9V.22h4.61l11.92,15V.22h5.9V25.78H80.6Z"/><path class="cls-1" d="M90.25,25.78V.22h5.9V25.78Z"/><path class="cls-1" d="M120.53,5.4h-7.78V25.78h-5.9V5.4H99V.22h21.49Z"/><path class="cls-1" d="M127.83.22h5.33l9.32,25.56h-6l-2-5.72h-8l-1.94,5.72h-6ZM133.49,16l-3-9-3.06,9Z"/><path class="cls-1" d="M159.95,7.7a3.61,3.61,0,0,0-.76-.54,14.1,14.1,0,0,0-1.62-.83,15.43,15.43,0,0,0-2.12-.76,8.45,8.45,0,0,0-2.3-.32Q150,5.26,150,7.38a1.68,1.68,0,0,0,.34,1.08,3,3,0,0,0,1,.77,9.21,9.21,0,0,0,1.67.63l2.34.65a30.47,30.47,0,0,1,3.31,1.1,8.93,8.93,0,0,1,2.5,1.48,6,6,0,0,1,1.58,2.14,7.44,7.44,0,0,1,.56,3,7.57,7.57,0,0,1-.81,3.65,6.84,6.84,0,0,1-2.14,2.41,9,9,0,0,1-3.06,1.33,15.28,15.28,0,0,1-3.56.41,20,20,0,0,1-2.88-.22,21,21,0,0,1-2.88-.63,23,23,0,0,1-2.72-1,15.11,15.11,0,0,1-2.43-1.33l2.59-5.15a5.07,5.07,0,0,0,.94.68,14,14,0,0,0,2,1,20.17,20.17,0,0,0,2.61.9,11,11,0,0,0,2.92.4q3.13,0,3.13-1.91a1.61,1.61,0,0,0-.47-1.19,4.44,4.44,0,0,0-1.3-.85,14.09,14.09,0,0,0-2-.7l-2.47-.72a21.26,21.26,0,0,1-3.06-1.17,8.05,8.05,0,0,1-2.14-1.46,5.3,5.3,0,0,1-1.26-1.91,7,7,0,0,1-.41-2.52,8,8,0,0,1,.76-3.56,7.69,7.69,0,0,1,2.05-2.61,8.92,8.92,0,0,1,3-1.6A11.93,11.93,0,0,1,153.32,0,13.78,13.78,0,0,1,156,.25a19.84,19.84,0,0,1,2.48.65,17.81,17.81,0,0,1,2.21.9q1,.5,1.89,1Z"/></g></g></svg>
